<?xml version="1.0" encoding="UTF-8" standalone="no"?>
<!-- Created with Inkscape (http://www.inkscape.org/) -->

<svg
   width="384"
   height="384"
   viewBox="0 0 101.60002 101.60002"
   version="1.1"
   id="svg1"
   inkscape:version="1.3 (0e150ed6c4, 2023-07-21)"
   sodipodi:docname="leornian-icon.svg"
   xml:space="preserve"
   inkscape:export-filename="leornian-icon.png"
   inkscape:export-xdpi="96"
   inkscape:export-ydpi="96"
   xmlns:inkscape="http://www.inkscape.org/namespaces/inkscape"
   xmlns:sodipodi="http://sodipodi.sourceforge.net/DTD/sodipodi-0.dtd"
   xmlns="http://www.w3.org/2000/svg"
   xmlns:svg="http://www.w3.org/2000/svg"><sodipodi:namedview
     id="namedview1"
     pagecolor="#ffffff"
     bordercolor="#666666"
     borderopacity="1.0"
     inkscape:showpageshadow="2"
     inkscape:pageopacity="0.0"
     inkscape:pagecheckerboard="0"
     inkscape:deskcolor="#d1d1d1"
     inkscape:document-units="px"
     showgrid="false"
     inkscape:zoom="1.4142136"
     inkscape:cx="271.529"
     inkscape:cy="245.36605"
     inkscape:window-width="2132"
     inkscape:window-height="1404"
     inkscape:window-x="1232"
     inkscape:window-y="428"
     inkscape:window-maximized="0"
     inkscape:current-layer="layer1" /><defs
     id="defs1" /><g
     inkscape:label="Layer 1"
     inkscape:groupmode="layer"
     id="layer1"><circle
       style="fill:#333333;fill-opacity:1;stroke:none;stroke-width:0.132292;stroke-opacity:0.7"
       id="path1"
       cx="50.800011"
       cy="50.800011"
       r="50.800011" /><path
       id="path2"
       style="fill:#e5e5e5;fill-opacity:1;stroke:none;stroke-width:0.99999px;stroke-linecap:butt;stroke-linejoin:miter;stroke-opacity:1"
       d="m 37.96662,32.753624 3.830123,-3.306909 c 4.083242,-0.336084 6.656015,2.911461 7.586381,5.566241 C 45.0901,32.59576 42.801874,32.47587 37.96662,32.753624 Z m 5.570026,27.252061 c -1.502336,-3.691334 -10.242027,-0.135383 -17.573939,5.18272 0,0 -4.469829,-3.517326 -3.565599,-8.138177 12.767121,1.040752 20.514783,-0.30393 23.757474,-12.070137 11.776145,6.666141 1.245187,12.608257 -2.617936,15.025594 z m -0.115154,30.113978 c 0,0 -5.19671,-10.997161 -0.504591,-17.762065 18.431777,-3.342253 18.885794,-22.577687 18.885794,-22.577687 0,0 12.327659,22.0763 -2.865159,26.864104 C 48.275097,80.004142 43.421501,90.119662 43.421492,90.119663 Z M 20.774149,56.040484 c 0,0 -1.958844,-5.509429 -2.146653,-10.620671 -3.592564,-1.594809 -0.360636,-8.011665 2.924229,-6.755094 6.814222,-5.777007 15.370896,-5.158947 15.370896,-5.158947 -7.658107,6.866777 -9.005939,3.521828 -15.365508,8.633839 0.534003,8.795353 6.546653,11.477311 13.869293,12.441977 0,0 -12.924598,-1.054056 -14.652257,1.458896 z m 18.858757,-28.61586 c -2.623113,-10.20043 3.497201,-11.7758 10.260128,-19.6495697 0,0 0.330792,4.0591317 -2.684781,10.2633107 -1.945152,4.001907 -5.443031,5.477014 -7.575347,9.386259 z M 92.515755,40.344658 C 76.188848,25.543936 69.107081,21.890486 59.871322,20.327512 49.925125,18.906627 45.288294,23.844396 45.288294,23.844396 50.68766,11.482691 62.214728,13.856606 62.214728,13.856606 75.112035,15.190541 88.221757,25.937491 92.515755,40.344658 Z M 81.390097,70.892429 C 83.492175,38.927493 63.413837,34.856745 59.269379,25.869845 56.523536,19.915723 71.531182,27.116627 79.03761,32.364328 90.88083,40.643892 95.36523,46.734605 92.23929,58.101688 85.987387,59.94884 81.390097,70.892429 81.390097,70.892429 Z m -8.762775,12.377926 c -4.546835,-4.973092 -5.187766,-8.691428 -3.829917,-19.818191 0.950144,-7.785888 -6.101733,-11.338175 -2.411486,-24.624987 0,0 10.542496,10.710433 12.239611,19.463554 1.977367,10.198598 -3.298523,11.339127 -5.998208,24.979624 z m -48.371424,3.37791 c -1.243852,-12.88274 2.484564,-17.314579 10.321365,-23.141942 17.456907,2.6416 24.132298,-15.016559 24.132298,-15.016559 0,0 0.980589,19.027809 -19.553843,20.036684 -9.042461,5.425469 3.654104,13.446677 -14.89982,18.121817 z"
       sodipodi:nodetypes="ccccccccccccsccccccccccscccccccsscccscscccccc" /></g></svg>
